# xmcd
#
# Track frame offsets: 
#        150
#        10755
#        22493
#        32065
#        46826
#        57705
#        74039
#        86418
#        96422
#        113837
#        126252
#        139968
#
# Disc length: 2142 seconds
#
# Revision: 0
# Processed by: cddbd v1.5.2PL0 Copyright (c) Steve Scherf et al.
# Submitted via: ExactAudioCopy v0.95b3
#
DISCID=b3085c0c
DTITLE=Various Artist - The Best Of Bluegrass - Volume 2
DYEAR=2006
DGENRE=Bluegrass
TTITLE0=Alison Krauss - Endless Hoghway
TTITLE1=Rooftop Singers - Walk Right In
TTITLE2=Ralph Stanley - Katy Daley
TTITLE3=Dolly Parton - Marry Me
TTITLE4=Ricky Skaggs - Uncle Pen
TTITLE5=Norman Blake - Blackberry Blossom
TTITLE6=Rhonda Vincent - Is The Grass Any Bluer
TTITLE7=Flatt and Scruggs - Don't Let Your Deal Go Down
TTITLE8=New Grass Revival - Revival
TTITLE9=Patty Loveless - Daniel Prayed
TTITLE10=String Cheese Incident - Up The Canyon
TTITLE11=Mark O'Connor - Gold Rush
EXTD=
EXTT0=
EXTT1=
EXTT2=
EXTT3=
EXTT4=
EXTT5=
EXTT6=
EXTT7=
EXTT8=
EXTT9=
EXTT10=
EXTT11=
PLAYORDER=
